<?xml version="1.0" encoding="UTF-8"?>
<svg width="32px" height="33px" viewBox="0 0 32 33" version="1.1" xmlns="http://www.w3.org/2000/svg" xmlns:xlink="http://www.w3.org/1999/xlink">
    <!-- Generator: sketchtool 47.1 (45422) - http://www.bohemiancoding.com/sketch -->
    <title>AC845364-441C-4D26-AEC6-10C6F6D8DB88</title>
    <desc>Created with sketchtool.</desc>
    <defs></defs>
    <g id="Welcome" stroke="none" stroke-width="1" fill="none" fill-rule="evenodd" opacity="0.8">
        <g id="Partners-Copy-3" transform="translate(-298.000000, -2977.000000)" fill-rule="nonzero" fill="#FFFFFF">
            <g id="Group-6" transform="translate(231.000000, 2934.000000)">
                <g id="noun_40254_cc" transform="translate(67.000000, 43.000000)">
                    <path d="M29.5136162,0 L2.48638384,0 C1.11620202,0 0,1.11811429 0,2.49074286 L0,29.566319 C0,30.9390286 1.11620202,32.0571429 2.48638384,32.0571429 L16.2288485,32.0571429 L22.5798788,32.0571429 L29.513697,32.0571429 C30.883798,32.0571429 32,30.9390286 32,29.566319 L32,2.49074286 C32,1.11811429 30.883798,0 29.5136162,0 Z M17.8585859,30.4380952 L17.8585859,18.6190476 L13.8989899,18.6190476 L13.8989899,15.7047619 L17.8585859,15.7047619 L17.8585859,11.4793714 C17.8585859,9.80972857 18.3344646,8.44932381 19.247596,7.54516667 C20.1249293,6.67646667 21.4151111,6.21730476 22.9539394,6.21730476 C24.0353939,6.21730476 24.9696162,6.27049048 25.6968889,6.32254286 L25.6968889,8.8877619 L24.0433131,8.88849048 C20.9629091,8.88849048 20.9292121,11.180819 20.9292121,11.9341619 L20.9292121,15.7047619 L25.3930505,15.7047619 L25.0102626,18.6190476 L20.9292929,18.6190476 L20.9292929,30.4380952 L17.8585859,30.4380952 Z M30.3838384,29.566319 C30.3838384,30.0462048 29.9925657,30.4380952 29.5136162,30.4380952 L22.5454545,30.4380952 L22.5454545,20.2380952 L26.4314343,20.2380952 L27.2311111,14.0857143 L22.5454545,14.0857143 L22.5454545,11.9341619 C22.5454545,11.3754286 22.6365253,11.0273333 22.7949899,10.8387143 C22.9797172,10.6189286 23.4193131,10.5075381 24.0524444,10.5075381 L27.3131313,10.506081 L27.3131313,4.87956667 L26.5949091,4.78622857 C26.2283636,4.73741429 24.7637172,4.59825714 22.942303,4.59825714 C20.9691313,4.59825714 19.3018182,5.21908095 18.1155556,6.3937 C16.888404,7.60879524 16.2424242,9.36740476 16.2424242,11.4793714 L16.2424242,14.0857143 L12.2828283,14.0857143 L12.2828283,20.2380952 L16.2424242,20.2380952 L16.2424242,30.4380952 L2.48638384,30.4380952 C2.00735354,30.4380952 1.61616162,30.0462048 1.61616162,29.566319 L1.61616162,2.49074286 C1.61616162,2.01085714 2.00735354,1.61904762 2.48638384,1.61904762 L29.5136162,1.61904762 C29.9925657,1.61904762 30.3838384,2.01085714 30.3838384,2.49074286 L30.3838384,29.566319 Z M20.9420669,30.4341326 L20.9423828,32.0611733 L20.5388093,32.0571562 L19.7916292,32.0571562 L18.1748687,32.0571562 C18.0136708,32.0571562 17.8525965,32.0619193 17.8525965,32.0619193 L17.8563591,30.4353986 L20.9420669,30.4341326 Z" id="Shape"></path>
                </g>
            </g>
        </g>
    </g>
</svg>