<?xml version="1.0" encoding="UTF-8"?>
<svg width="44px" height="33px" viewBox="0 0 44 33" version="1.1" xmlns="http://www.w3.org/2000/svg" xmlns:xlink="http://www.w3.org/1999/xlink">
    <!-- Generator: sketchtool 47.1 (45422) - http://www.bohemiancoding.com/sketch -->
    <title>EA5DD921-6971-457C-9458-02412F644315</title>
    <desc>Created with sketchtool.</desc>
    <defs></defs>
    <g id="Welcome" stroke="none" stroke-width="1" fill="none" fill-rule="evenodd" opacity="0.8">
        <g id="Partners-Copy-3" transform="translate(-233.000000, -2976.000000)" fill-rule="nonzero" fill="#FFFFFF">
            <g id="Group-6" transform="translate(231.000000, 2934.000000)">
                <g id="noun_758350_cc" transform="translate(2.000000, 42.000000)">
                    <g id="Group" transform="translate(0.000000, 0.318910)">
                        <path d="M-5.00003061e-08,5.181095 L-5.00003061e-08,27.1811 C-5.00003061e-08,29.93375 2.247325,32.1811 5,32.1811 L39,32.1811 C41.752675,32.1811 44,29.93375 44,27.1811 L44,5.181095 C44,2.428415 41.752675,0.18109 39,0.18109 L5,0.18109 C2.247325,0.18109 -5.00003061e-08,2.428415 -5.00003061e-08,5.181095 Z M4.57500002,1.83108989 L39.425,1.83108989 C41.1462517,1.83108989 42.5,3.18483814 42.5,4.90609501 L42.5,27.4561001 C42.5,29.1773314 41.1462517,30.5311001 39.425,30.5311001 L4.57500002,30.5311001 C2.85374827,30.5311001 1.49999997,29.1773314 1.49999997,27.4561001 L1.49999997,4.90609501 C1.49999997,3.18483814 2.85374827,1.83108989 4.57500002,1.83108989 L4.57500002,1.83108989 Z M17.9375,8.102945 C17.4195244,8.13053197 17.0167271,8.609733 17.03125,9.181095 L17.03125,23.1811 C17.0216659,23.5668675 17.2048499,23.9273383 17.5083014,24.1198454 C17.8117528,24.3123524 18.1865575,24.3058647 18.484375,24.10295 L29.484375,17.10295 C29.7905118,16.9189956 29.9810065,16.5653888 29.9810065,16.181075 C29.9810065,15.7967612 29.7905118,15.4431544 29.484375,15.2592 L18.484375,8.259195 C18.3206115,8.14735897 18.1299323,8.09287922 17.9375,8.102945 L17.9375,8.102945 Z M18.953125,11.009195 L27.078125,16.1811 L18.953125,21.33735 L18.953125,11.009195 Z" id="Shape"></path>
                    </g>
                </g>
            </g>
        </g>
    </g>
</svg>