<svg xmlns="http://www.w3.org/2000/svg" viewBox="0 0 3533.51 425.04"><defs><style>.cls-1{fill:#fff;}</style></defs><title>자산 7</title><g id="레이어_2" data-name="레이어 2"><g id="레이어_1-2" data-name="레이어 1"><path class="cls-1" d="M874.73,346.6V151.41H831.87V95.08H937.43V346.6Z"/><path class="cls-1" d="M1358.1,175.45,1293.81,346.6h-28.9L1201,175.45V346.6h-65.43V92.91h90.91l52.87,143.77,53.24-143.77h90.91V346.6H1358.1Z"/><path class="cls-1" d="M1621.27,92.91h65.43V346.6h-65.43Z"/><path class="cls-1" d="M1884.44,92.91h65.43V289.55H2051.8v57H1884.44Z"/><path class="cls-1" d="M2237.76,92.91h65.42V289.55h101.94v57H2237.76Z"/><path class="cls-1" d="M2591.06,92.91h65.42V346.6h-65.42Z"/><path class="cls-1" d="M2977.11,88.73c77.59,0,135.41,54,135.41,131.22s-57.82,131.21-135.41,131.21-135.78-54-135.78-131.21S2899.52,88.73,2977.11,88.73Zm0,57.8c-42.22,0-69.22,32-69.22,73.42,0,41.07,27,73.4,69.22,73.4,41.83,0,68.84-32.33,68.84-73.4C3046,178.49,3018.94,146.54,2977.11,146.54Z"/><path class="cls-1" d="M3363.12,193.32V346.6h-65.43V92.91H3365L3467.71,239V92.91h65.81V346.6h-63.15Z"/><rect class="cls-1" x="159.04" width="411.02" height="86.33" rx="43.17" ry="43.17"/><rect class="cls-1" x="57.54" y="237.21" width="289.33" height="86.33" rx="43.17" ry="43.17" transform="translate(482.58 78.18) rotate(90)"/><rect class="cls-1" x="-169.36" y="169.36" width="425.04" height="86.33" rx="43.17" ry="43.17" transform="translate(255.69 169.36) rotate(90)"/><rect class="cls-1" x="219.88" y="237.21" width="289.33" height="86.33" rx="43.17" ry="43.17" transform="translate(644.93 -84.17) rotate(90)"/><rect class="cls-1" x="382.23" y="237.21" width="289.33" height="86.33" rx="43.17" ry="43.17" transform="translate(807.27 -246.51) rotate(90)"/></g></g></svg>